<svg width="25" height="20" viewBox="0 0 27 27" fill="none" xmlns="http://www.w3.org/2000/svg">
<g clip-path="url(#clip0_589_2)">
<path d="M1.81361 0.448659C1.5551 0.50168 1.16118 0.726 1.00115 0.913613C0.92319 1.00334 0.808296 1.17872 0.746746 1.30515L0.635955 1.52947L0.623645 8.20198C0.615439 14.6787 0.615439 14.8826 0.693402 15.1274C0.894466 15.7758 1.48535 16.1755 2.19523 16.1429C2.76969 16.1184 3.19644 15.8452 3.47957 15.315L3.59036 15.111L3.60267 8.35289L3.61088 1.59473L3.52061 1.35818C3.39751 1.03189 3.0241 0.660743 2.69173 0.534308C2.4127 0.432345 2.06392 0.395638 1.81361 0.448659Z" fill="#8C52FF"/>
<path d="M17.8536 7.12116C17.751 7.15787 17.6033 7.2272 17.5253 7.28023C17.4433 7.33325 15.2603 9.48264 12.6752 12.0603C7.37365 17.342 7.77578 16.8852 7.77578 17.5582C7.77578 17.8722 7.79219 17.9579 7.88657 18.1577C8.03018 18.4677 8.27638 18.7206 8.58413 18.8878C8.83034 19.0183 8.86316 19.0264 9.25298 19.0264C9.99158 19.0264 9.5279 19.4302 14.8828 14.1036C18.5758 10.4248 19.5852 9.39699 19.6673 9.23793C19.9668 8.64246 19.8601 7.94911 19.4005 7.49231C19.1133 7.20681 18.8179 7.08446 18.3829 7.06814C18.1367 7.05998 17.9808 7.0763 17.8536 7.12116Z" fill="#8C52FF"/>
<path d="M11.8298 23.1825C10.5167 23.5945 10.3731 25.3686 11.6082 25.9723L11.838 26.0824L18.6208 26.0946L25.4078 26.1028L25.6458 26.009C26.0725 25.8336 26.3803 25.5032 26.5157 25.0709C26.7413 24.3368 26.4008 23.5822 25.695 23.256L25.4611 23.1458L18.7316 23.1377C13.2496 23.1336 11.9693 23.1418 11.8298 23.1825Z" fill="#8C52FF"/>
</g>
<defs>
<clipPath id="clip0_589_2">
<rect width="27" height="27" fill="white"/>
</clipPath>
</defs>
</svg>
