<?xml version="1.0" encoding="utf-8"?><svg xml:space="preserve" viewBox="0 0 100 100" y="0" x="0" xmlns="http://www.w3.org/2000/svg" id="圖層_1" version="1.1" width="200px" height="200px" xmlns:xlink="http://www.w3.org/1999/xlink" style="width:100%;height:100%;background-size:initial;background-repeat-y:initial;background-repeat-x:initial;background-position-y:initial;background-position-x:initial;background-origin:initial;background-image:initial;background-color:rgb(255, 255, 255);background-clip:initial;background-attachment:initial;animation-play-state:paused" ><g class="ldl-scale" style="transform-origin:50% 50%;transform:rotate(0deg) scale(0.8, 0.8);animation-play-state:paused" ><g style="animation-play-state:paused" ><path stroke-miterlimit="10" stroke-linecap="round" stroke-width="3.15" stroke="#333" fill="#e0e0e0" d="M15.69 19.029h60.308a5.19 5.19 0 0 1 5.19 5.19v39.177a5.19 5.19 0 0 1-5.19 5.19H15.69a5.19 5.19 0 0 1-5.19-5.19V24.22a5.19 5.19 0 0 1 5.19-5.191z" style="stroke:rgb(51, 51, 51);fill:rgb(224, 224, 224);animation-play-state:paused" ></path>
<path d="M10.5 29.047h70.689v11.238H10.5z" stroke-miterlimit="10" stroke-linecap="round" stroke-width="3.15" stroke="#333" fill="#666" style="stroke:rgb(51, 51, 51);fill:rgb(102, 102, 102);animation-play-state:paused" ></path></g>
<g style="animation-play-state:paused" ><circle stroke-miterlimit="10" stroke-width="3.952" stroke="#333" fill="#fff" r="14.561" cy="66.409" cx="76.939" style="stroke:rgb(51, 51, 51);fill:rgb(255, 255, 255);animation-play-state:paused" ></circle>
<path fill="#849b87" d="M71.398 62l-2.006-.619a9 9 0 0 0-1.345 3.246l1.855.981c-.03.263-.048.53-.048.801s.019.538.048.801l-1.855.981a9.018 9.018 0 0 0 1.345 3.246l2.006-.619a7.13 7.13 0 0 0 1.132 1.132l-.619 2.006a9 9 0 0 0 3.246 1.345l.981-1.855c.263.03.53.048.801.048s.538-.019.801-.048l.981 1.855a9.018 9.018 0 0 0 3.246-1.345l-.619-2.006a7.13 7.13 0 0 0 1.132-1.132l2.006.619a9 9 0 0 0 1.345-3.246l-1.855-.981c.03-.263.048-.53.048-.801s-.019-.538-.048-.801l1.855-.981a9.018 9.018 0 0 0-1.345-3.246L82.479 62a7.13 7.13 0 0 0-1.132-1.132l.619-2.006a9 9 0 0 0-3.246-1.345l-.981 1.855c-.263-.03-.53-.048-.801-.048s-.538.019-.801.048l-.981-1.855a9.018 9.018 0 0 0-3.246 1.345l.619 2.006A7.207 7.207 0 0 0 71.398 62zm5.541-.692a5.101 5.101 0 1 1 0 10.203 5.101 5.101 0 0 1 0-10.203z" style="fill:rgb(132, 155, 135);animation-play-state:paused" ></path></g>
<metadata xmlns:d="https://loading.io/stock/" style="animation-play-state:paused" ><d:name style="animation-play-state:paused" >credit card</d:name>
<d:tags style="animation-play-state:paused" >credit card,pay,transaction details</d:tags>
<d:license style="animation-play-state:paused" >by</d:license>
<d:slug style="animation-play-state:paused" >nz1tje</d:slug></metadata></g><!-- generated by https://loading.io/ --></svg>